<?xml version="1.0" standalone="no"?><!DOCTYPE svg PUBLIC "-//W3C//DTD SVG 1.1//EN" "http://www.w3.org/Graphics/SVG/1.1/DTD/svg11.dtd"><svg t="1577071518390" class="icon" viewBox="0 0 1024 1024" version="1.1" xmlns="http://www.w3.org/2000/svg" p-id="48820" xmlns:xlink="http://www.w3.org/1999/xlink" width="200" height="200"><defs><style type="text/css"></style></defs><path d="M307.2 793.193651l1.625397 13.003174h146.285714l1.625397-13.003174 1.625397-11.377778h-151.161905z" fill="#F53415" p-id="48821"></path><path d="M893.968254 1.625397H128.406349C42.260317 1.625397 0 43.885714 0 128.406349V893.968254c0 84.520635 42.260317 128.406349 128.406349 128.406349H893.968254c84.520635 0 128.406349-42.260317 128.406349-128.406349V128.406349C1020.749206 43.885714 978.488889 1.625397 893.968254 1.625397zM325.079365 858.209524c-13.003175 29.257143-35.75873 55.263492-45.511111 55.263492h-9.752381l8.126984-14.628572c6.501587-13.003175 13.003175-27.631746 16.253968-42.260317 8.126984-27.631746 6.501587-27.631746 22.755556-27.631746 19.504762 1.625397 19.504762 4.87619 8.126984 29.257143z m69.892064-1.625397c0 30.88254-1.625397 35.75873-9.752381 43.885714-13.003175 13.003175-39.009524 17.879365-39.009524 8.126984 0-4.87619 3.250794-8.126984 8.126984-9.752381 9.752381-3.250794 13.003175-19.504762 13.003175-53.638095v-24.380952H325.079365c-14.628571 0-30.88254 0-45.511111-1.625397-1.625397-8.126984-1.625397-17.879365 0-26.006349l1.625397-24.380953h201.549206v53.638096h-89.396825v34.133333z m89.396825 56.888889c-8.126984-1.625397-14.628571-6.501587-19.504762-14.628572-14.628571-19.504762-26.006349-40.634921-32.507936-63.390476h-1.625397c0-4.87619 4.87619-6.501587 14.628571-6.501587 14.628571 0 16.253968 1.625397 21.130159 22.755556 3.250794 14.628571 8.126984 29.257143 16.253968 42.260317 9.752381 17.879365 9.752381 19.504762 1.625397 19.504762z m-102.4-157.663492c-95.898413 0-110.526984-1.625397-110.526984-6.501587 0-4.87619 8.126984-6.501587 47.136508-6.501588 37.384127 0 47.136508-1.625397 48.761905-6.501587 3.250794-4.87619 9.752381-8.126984 16.253968-6.501587 8.126984 0 13.003175 1.625397 13.003174 6.501587 0 4.87619 8.126984 6.501587 48.761905 6.501587s48.761905 0 48.761905 6.501588c-1.625397 6.501587-16.253968 6.501587-112.152381 6.501587z m136.533333-99.149207h-9.752381c0-19.504762 1.625397-39.009524 1.625397-60.139682-3.250794 1.625397-8.126984 3.250794-11.377778 4.87619-6.501587 4.87619-13.003175 9.752381-17.879365 16.253969-9.752381 11.377778-21.130159 21.130159-30.882539 32.507936-6.501587 6.501587-8.126984 8.126984-19.504762 4.876191l39.009524-65.015873c-13.003175-1.625397-22.755556-9.752381-27.631746-21.130159-3.250794-8.126984-3.250794-16.253968 0-24.380952 0 3.250794 1.625397 6.501587 1.625396 8.126984 1.625397 6.501587 6.501587 13.003175 11.377778 16.253968 6.501587 3.250794 13.003175 3.250794 19.504762 1.625397 3.250794-1.625397 8.126984-3.250794 9.752381-8.126984 13.003175-21.130159 24.380952-40.634921 37.384127-61.76508 1.625397-3.250794 4.87619-4.87619 8.126984-3.250793 19.504762 4.87619 39.009524 4.87619 58.514286 0 4.87619-1.625397 8.126984-3.250794 13.003174-4.876191v162.539683h1.625397-14.628571c-1.625397 0-3.250794-1.625397-3.250794-3.250794-3.250794-13.003175-6.501587-27.631746-9.752381-40.634921-1.625397-4.87619-4.87619-9.752381-6.501587-14.628571-1.625397-3.250794-4.87619-4.87619-8.126984-6.501587-3.250794 0-6.501587 1.625397-9.752381 4.87619-4.87619 6.501587-9.752381 13.003175-13.003175 21.130159-4.87619 11.377778-8.126984 22.755556-11.377778 34.133333-1.625397 4.87619-3.250794 8.126984-8.126984 6.501587z m69.892064 185.295239c-9.752381 30.88254-40.634921 74.768254-53.638095 74.768254-4.87619 0-3.250794-4.87619 4.87619-21.130159 6.501587-13.003175 11.377778-26.006349 14.628571-40.634921 1.625397-6.501587 3.250794-14.628571 4.876191-21.130159v1.625397c1.625397-1.625397 8.126984-3.250794 17.879365-3.250793 13.003175-1.625397 14.628571 0 11.377778 9.752381z m151.161905 71.51746c-9.752381 0-34.133333-30.88254-45.511112-56.888889-3.250794-8.126984-8.126984-16.253968-9.752381-26.006349H682.666667h16.253968c16.253968 1.625397 16.253968 1.625397 22.755555 29.257143 3.250794 13.003175 9.752381 26.006349 16.253969 37.384127 9.752381 14.628571 11.377778 16.253968 1.625397 16.253968z m-66.64127-157.663492h-76.393651L585.142857 780.190476c-4.87619 8.126984-8.126984 17.879365-9.752381 26.006349 8.126984 1.625397 16.253968 3.250794 24.380953 3.250794h21.130158v-19.504762c0-19.504762 0-19.504762 14.628572-19.504762s16.253968 0 16.253968 19.504762l3.250794 17.879365 43.885714 1.625397c34.133333 1.625397 42.260317 1.625397 42.260317 8.126984 0 4.87619-8.126984 6.501587-43.885714 6.501587h-43.885714v32.507937c0 27.631746-1.625397 34.133333-9.752381 43.885714-11.377778 13.003175-39.009524 21.130159-39.009524 11.377778 1.625397-4.87619 4.87619-9.752381 8.126984-11.377778 8.126984-4.87619 8.126984-9.752381 8.126984-40.63492v-35.758731h-42.260317c-26.006349 0-42.260317-1.625397-42.260318-4.87619 3.250794-11.377778 8.126984-21.130159 13.003175-30.88254 4.87619-9.752381 9.752381-19.504762 13.003175-29.257143 0-1.625397-8.126984-1.625397-17.879365-1.625396-13.003175 0-17.879365-1.625397-17.879366-6.501588 0-4.87619 4.87619-6.501587 21.130159-6.501587s22.755556-1.625397 24.380953-6.501587v1.625397c1.625397-3.250794 4.87619-6.501587 17.879365-6.501588s14.628571 0 13.003174 6.501588c-1.625397 6.501587 8.126984 6.501587 69.892064 6.501587s73.142857 0 73.142857 6.501587c4.87619 3.250794-8.126984 3.250794-73.142857 3.250794z m141.409524-505.498413c-3.250794 22.755556-9.752381 43.885714-19.504762 63.390476-8.126984 19.504762-17.879365 37.384127-17.879365 37.384127l-4.876191 3.250794c1.625397 0 3.250794-1.625397 4.876191-1.625397-4.87619 8.126984-9.752381 16.253968-16.253969 22.755556-35.75873 48.761905-86.146032 84.520635-144.660317 100.774603-37.384127 9.752381-78.019048 9.752381-115.403175 0-63.390476-14.628571-123.530159-43.885714-173.91746-84.520635-16.253968-13.003175-29.257143-27.631746-40.634921-45.511111-3.250794-6.501587-6.501587-13.003175-9.752381-21.130159-1.625397-6.501587-3.250794-9.752381-9.752381-11.377778 0 13.003175 3.250794 27.631746 3.250794 40.634921 1.625397 24.380952-9.752381 47.136508-29.257143 60.139682-16.253968 11.377778-34.133333 19.504762-52.012698 24.380953-9.752381 3.250794-21.130159 0-27.631746-8.126984-6.501587-8.126984-9.752381-17.879365-6.501588-27.631746 3.250794-13.003175 8.126984-26.006349 14.628572-37.384127 16.253968-27.631746 27.631746-56.888889 34.133333-89.396826 1.625397-6.501587 3.250794-11.377778 6.501587-16.253968 4.87619-9.752381 14.628571-14.628571 24.380953-11.377778 8.126984 1.625397 14.628571 4.87619 21.130159 8.126984 9.752381 4.87619 21.130159 11.377778 30.882539 17.879365 6.501587-6.501587 13.003175-14.628571 19.504762-19.504761 22.755556-21.130159 48.761905-39.009524 78.019048-50.387302 45.511111-21.130159 92.647619-37.384127 141.409524-48.761905 22.755556-4.87619 45.511111-8.126984 68.266666-9.752381 26.006349 0 53.638095-1.625397 81.269842 0 24.380952 0 48.761905 3.250794 71.51746 9.752381h48.761905c9.752381 8.126984 16.253968 17.879365 19.504762 30.88254 1.625397 35.75873 1.625397 50.387302 0 63.390476z" fill="#F53415" p-id="48822"></path><path d="M520.126984 209.67619c-6.501587 0-13.003175 1.625397-16.253968 8.126985-3.250794 4.87619-3.250794 13.003175 0 17.879365 3.250794 4.87619 9.752381 8.126984 16.253968 8.126984 4.87619 0 9.752381-1.625397 13.003175-4.876191 3.250794-3.250794 6.501587-8.126984 6.501587-13.003174 0-4.87619-1.625397-9.752381-6.501587-13.003175-3.250794-1.625397-8.126984-3.250794-13.003175-3.250794zM776.939683 333.206349c-14.628571 8.126984-30.88254 13.003175-47.136508 16.253968-45.511111 9.752381-94.273016 6.501587-138.158731-8.126984-26.006349-9.752381-48.761905-26.006349-68.266666-47.136508-1.625397-1.625397-3.250794-4.87619-6.501588-6.501587-3.250794-1.625397-6.501587-1.625397-8.126984 0-1.625397 1.625397-3.250794 4.87619-3.250793 8.126984 1.625397 3.250794 3.250794 6.501587 4.87619 8.126984 27.631746 30.88254 63.390476 52.012698 104.025397 61.76508 48.761905 11.377778 99.149206 9.752381 146.285714-4.876191 3.250794-1.625397 4.87619-1.625397 8.126984-3.250793 1.625397 0 1.625397 0 3.250794-1.625397l4.876191-3.250794s9.752381-17.879365 17.879365-37.384127c0 1.625397-1.625397 3.250794-1.625397 4.876191-4.87619 4.87619-9.752381 9.752381-16.253968 13.003174z" fill="#535353" p-id="48823"></path><path d="M794.819048 156.038095h-48.761905 48.761905z" fill="#A6A6A7" p-id="48824"></path><path d="M750.933333 156.038095H796.444444h-47.136507 1.625396z" fill="#A5A5A6" p-id="48825"></path><path d="M752.55873 157.663492H796.444444h-43.885714c-1.625397-1.625397-1.625397 0 0 0z" fill="#A4A4A5" p-id="48826"></path><path d="M754.184127 157.663492H796.444444h-43.885714 1.625397z" fill="#A3A3A4" p-id="48827"></path><path d="M754.184127 157.663492h40.634921-40.634921z" fill="#A2A2A3" p-id="48828"></path><path d="M755.809524 157.663492h39.009524-39.009524z" fill="#A1A1A2" p-id="48829"></path><path d="M757.434921 159.288889H796.444444h-39.009523c-1.625397 0 0 0 0 0z" fill="#A0A0A1" p-id="48830"></path><path d="M757.434921 159.288889h37.384127-37.384127z" fill="#9F9FA0" p-id="48831"></path><path d="M759.060317 159.288889h35.758731-35.758731z" fill="#9E9E9F" p-id="48832"></path><path d="M760.685714 159.288889H796.444444h-35.75873c-1.625397 0 0 0 0 0z" fill="#9D9D9E" p-id="48833"></path><path d="M760.685714 160.914286h34.133334-34.133334z" fill="#9C9C9D" p-id="48834"></path><path d="M762.311111 160.914286H796.444444h-34.133333z" fill="#9B9B9C" p-id="48835"></path><path d="M762.311111 160.914286h32.507937-32.507937z" fill="#9A9A9B" p-id="48836"></path><path d="M763.936508 160.914286h30.88254H763.936508z" fill="#99999A" p-id="48837"></path><path d="M765.561905 162.539683H796.444444h-30.882539c-1.625397-1.625397 0 0 0 0zM733.053968 162.539683h-11.377778 21.130159c-3.250794 0-6.501587-1.625397-9.752381 0z" fill="#989899" p-id="48838"></path><path d="M765.561905 162.539683h29.257143-29.257143zM741.180952 162.539683h-24.380952H747.68254h-6.501588z" fill="#979798" p-id="48839"></path><path d="M767.187302 162.539683h27.631746-27.631746zM747.68254 162.539683h-30.88254 34.133333-3.250793z" fill="#969697" p-id="48840"></path><path d="M768.812698 162.539683H796.444444h-27.631746c-1.625397 0 0 0 0 0zM750.933333 162.539683H713.549206h37.384127z" fill="#969596" p-id="48841"></path><path d="M754.184127 162.539683h-42.260317 43.885714c0 1.625397-1.625397 1.625397-1.625397 0zM768.812698 164.165079h26.00635-26.00635z" fill="#959495" p-id="48842"></path><path d="M770.438095 164.165079h24.380953-24.380953zM755.809524 164.165079h-43.885714-1.625397 48.761904-3.250793z" fill="#949394" p-id="48843"></path><path d="M757.434921 164.165079h-48.761905-1.625397 50.387302zM772.063492 164.165079H796.444444h-24.380952c-1.625397 0 0 0 0 0z" fill="#939293" p-id="48844"></path><path d="M772.063492 164.165079h22.755556-22.755556zM759.060317 164.165079h-52.012698-1.625397 56.888889-3.250794z" fill="#929192" p-id="48845"></path><path d="M773.688889 165.790476h21.130159-21.130159zM760.685714 164.165079h-56.888889-1.625396 60.139682c0 1.625397 0 1.625397-1.625397 0z" fill="#919091" p-id="48846"></path><path d="M775.314286 165.790476H796.444444h-21.130158c-1.625397 0 0 0 0 0zM762.311111 165.790476h-60.139682-1.625397 61.765079z" fill="#908F90" p-id="48847"></path><path d="M763.936508 165.790476h-63.390476-1.625397 65.015873c1.625397 0 1.625397 0 0 0zM776.939683 165.790476H796.444444h-19.504761c-1.625397 0-1.625397 0 0 0z" fill="#8F8E8F" p-id="48848"></path><path d="M776.939683 167.415873h17.879365-17.879365c0-1.625397 0-1.625397 0 0zM765.561905 165.790476h-65.015873-1.625397 66.64127c1.625397 0 0 0 0 0z" fill="#8E8D8E" p-id="48849"></path><path d="M778.565079 167.415873H796.444444h-17.879365c-1.625397 0 0 0 0 0zM767.187302 167.415873H698.920635h-1.625397 69.892064z" fill="#8D8C8D" p-id="48850"></path><path d="M768.812698 167.415873H698.920635h-1.625397 71.51746zM778.565079 167.415873h16.253969-16.253969z" fill="#8C8B8C" p-id="48851"></path><path d="M768.812698 167.415873h-73.142857 73.142857c1.625397 0 0 0 0 0zM780.190476 167.415873h16.253968-16.253968z" fill="#8B8A8B" p-id="48852"></path><path d="M780.190476 167.415873h14.628572-14.628572zM770.438095 167.415873h-74.768254-1.625397 76.393651z" fill="#8A898A" p-id="48853"></path><path d="M770.438095 167.415873h-76.393651-1.625396 78.019047c1.625397 1.625397 1.625397 1.625397 0 0zM781.815873 169.04127h14.628571-14.628571c-1.625397 0 0 0 0 0z" fill="#898889" p-id="48854"></path><path d="M781.815873 169.04127h13.003175-13.003175zM772.063492 169.04127h-78.019048-1.625396 79.644444c1.625397 0 0 0 0 0z" fill="#888788" p-id="48855"></path><path d="M783.44127 169.04127h13.003174-13.003174c-1.625397 0 0 0 0 0zM773.688889 169.04127h-81.269841-1.625397 82.895238c1.625397 0 0 0 0 0z" fill="#878687" p-id="48856"></path><path d="M783.44127 170.666667h11.377778-11.377778c0-1.625397 0-1.625397 0 0zM775.314286 169.04127h-82.895238-1.625397 84.520635z" fill="#868586" p-id="48857"></path><path d="M775.314286 170.666667h-84.520635-1.625397 86.146032zM785.066667 170.666667h11.377777-11.377777c-1.625397 0 0 0 0 0z" fill="#858485" p-id="48858"></path><path d="M776.939683 170.666667h-86.146032-1.625397 87.771429zM785.066667 170.666667h9.752381-9.752381z" fill="#848384" p-id="48859"></path><path d="M786.692063 170.666667h9.752381-9.752381c-1.625397 0-1.625397 0 0 0zM776.939683 170.666667h-87.771429-1.625397 89.396826z" fill="#838283" p-id="48860"></path><path d="M778.565079 170.666667h-89.396825-1.625397 91.022222zM786.692063 172.292063h8.126985-8.126985c0-1.625397 0-1.625397 0 0z" fill="#828182" p-id="48861"></path><path d="M788.31746 172.292063h8.126984-8.126984c-1.625397 0-1.625397 0 0 0zM778.565079 172.292063h-91.022222 91.022222z" fill="#818081" p-id="48862"></path><path d="M788.31746 172.292063h6.501588-6.501588zM778.565079 172.292063h-92.647619 92.647619c1.625397 0 1.625397 0 0 0z" fill="#807F80" p-id="48863"></path><path d="M789.942857 172.292063h6.501587-6.501587c-1.625397 0-1.625397 0 0 0zM780.190476 172.292063h-94.273016H780.190476z" fill="#7F7E7F" p-id="48864"></path><path d="M780.190476 172.292063h-95.898413H780.190476c1.625397 1.625397 0 0 0 0zM789.942857 173.91746h4.876191-4.876191c0-1.625397 0-1.625397 0 0z" fill="#7E7D7E" p-id="48865"></path><path d="M781.815873 173.91746h-95.898413 95.898413zM791.568254 173.91746h4.87619-4.87619c-1.625397 0-1.625397 0 0 0z" fill="#7D7C7D" p-id="48866"></path><path d="M781.815873 173.91746h-97.52381 97.52381zM791.568254 173.91746h3.250794-3.250794z" fill="#7C7B7C" p-id="48867"></path><path d="M791.568254 173.91746h3.250794-3.250794zM781.815873 173.91746H682.666667h99.149206z" fill="#7B7A7B" p-id="48868"></path><path d="M791.568254 175.542857h3.250794-3.250794c0-1.625397 0-1.625397 0 0zM781.815873 173.91746H682.666667h99.149206z" fill="#7A797A" p-id="48869"></path><path d="M783.44127 175.542857H682.666667h100.774603zM793.193651 175.542857h3.250793-3.250793z" fill="#797879" p-id="48870"></path><path d="M783.44127 175.542857H682.666667h100.774603zM793.193651 175.542857h1.625397-1.625397z" fill="#787778" p-id="48871"></path><path d="M793.193651 175.542857h1.625397-1.625397zM783.44127 175.542857h-102.4 102.4z" fill="#777677" p-id="48872"></path><path d="M783.44127 175.542857h-102.4 102.4zM794.819048 177.168254c-1.625397-1.625397 0-1.625397 0 0z" fill="#767576" p-id="48873"></path><path d="M794.819048 177.168254zM783.44127 177.168254h-104.025397 104.025397c1.625397 0 0 0 0 0z" fill="#767475" p-id="48874"></path><path d="M785.066667 177.168254h-105.650794 105.650794zM794.819048 177.168254z" fill="#757374" p-id="48875"></path><path d="M794.819048 177.168254zM785.066667 177.168254h-105.650794 105.650794z" fill="#747273" p-id="48876"></path><path d="M785.066667 177.168254h-105.650794 105.650794c0 1.625397 0 0 0 0z" fill="#737172" p-id="48877"></path><path d="M785.066667 178.793651h-107.276191 107.276191z" fill="#727071" p-id="48878"></path><path d="M785.066667 178.793651h-107.276191 107.276191z" fill="#716F70" p-id="48879"></path><path d="M785.066667 178.793651h-107.276191 107.276191z" fill="#706E6F" p-id="48880"></path><path d="M785.066667 178.793651h-108.901588 108.901588c0 1.625397 0 0 0 0z" fill="#6F6D6E" p-id="48881"></path><path d="M785.066667 180.419048h-108.901588 108.901588z" fill="#6E6C6D" p-id="48882"></path><path d="M785.066667 180.419048h-108.901588 108.901588z" fill="#6D6B6C" p-id="48883"></path><path d="M785.066667 180.419048h-108.901588 108.901588z" fill="#6C6A6B" p-id="48884"></path><path d="M785.066667 180.419048h-110.526984 110.526984c0 1.625397 0 0 0 0z" fill="#6B696A" p-id="48885"></path><path d="M676.165079 182.044444h110.526984-110.526984z" fill="#6A6869" p-id="48886"></path><path d="M674.539683 182.044444h110.526984-110.526984c1.625397 0 0 0 0 0z" fill="#696768" p-id="48887"></path><path d="M674.539683 182.044444h110.526984-110.526984z" fill="#686667" p-id="48888"></path><path d="M674.539683 183.669841h110.526984-110.526984c0-1.625397 0 0 0 0z" fill="#676566" p-id="48889"></path><path d="M674.539683 183.669841h110.526984-110.526984z" fill="#666465" p-id="48890"></path><path d="M674.539683 183.669841h110.526984-110.526984z" fill="#656364" p-id="48891"></path><path d="M674.539683 183.669841h110.526984-110.526984z" fill="#646263" p-id="48892"></path><path d="M674.539683 185.295238h110.526984-110.526984c0-1.625397 0 0 0 0z" fill="#636162" p-id="48893"></path><path d="M674.539683 185.295238h110.526984-110.526984z" fill="#626061" p-id="48894"></path><path d="M674.539683 185.295238h110.526984-110.526984z" fill="#615F60" p-id="48895"></path><path d="M674.539683 185.295238h110.526984-110.526984z" fill="#605E5F" p-id="48896"></path><path d="M674.539683 186.920635h110.526984-110.526984z" fill="#5F5D5E" p-id="48897"></path><path d="M674.539683 186.920635h110.526984-110.526984z" fill="#5E5C5D" p-id="48898"></path><path d="M674.539683 186.920635h110.526984-110.526984z" fill="#5D5B5C" p-id="48899"></path><path d="M674.539683 186.920635h110.526984-110.526984z" fill="#5C5A5B" p-id="48900"></path><path d="M674.539683 188.546032h108.901587-108.901587z" fill="#5B595A" p-id="48901"></path><path d="M674.539683 188.546032h108.901587-108.901587z" fill="#5A5859" p-id="48902"></path><path d="M674.539683 188.546032h108.901587-108.901587z" fill="#595758" p-id="48903"></path><path d="M674.539683 188.546032h108.901587-108.901587z" fill="#585657" p-id="48904"></path><path d="M674.539683 190.171429h108.901587-108.901587c0-1.625397 0 0 0 0z" fill="#575556" p-id="48905"></path><path d="M674.539683 190.171429h108.901587-108.901587z" fill="#565455" p-id="48906"></path><path d="M674.539683 190.171429h107.27619-107.27619z" fill="#565454" p-id="48907"></path><path d="M674.539683 190.171429h107.27619-107.27619z" fill="#555352" p-id="48908"></path><path d="M676.165079 191.796825h107.276191-107.276191c-1.625397 0-1.625397 0 0 0z" fill="#545251" p-id="48909"></path><path d="M676.165079 191.796825h105.650794-105.650794z" fill="#535150" p-id="48910"></path><path d="M676.165079 191.796825h105.650794-105.650794z" fill="#52504F" p-id="48911"></path><path d="M676.165079 193.422222H780.190476h-104.025397c0-1.625397 0-1.625397 0 0z" fill="#514F4E" p-id="48912"></path><path d="M676.165079 193.422222H780.190476h-104.025397z" fill="#504E4D" p-id="48913"></path><path d="M676.165079 193.422222H780.190476h-104.025397z" fill="#4F4D4C" p-id="48914"></path><path d="M676.165079 193.422222H780.190476h-104.025397z" fill="#4E4C4B" p-id="48915"></path><path d="M677.790476 195.047619H780.190476h-102.4c-1.625397-1.625397 0-1.625397 0 0z" fill="#4D4B4A" p-id="48916"></path><path d="M677.790476 195.047619H780.190476h-102.4z" fill="#4C4A49" p-id="48917"></path><path d="M677.790476 195.047619H778.565079h-100.774603z" fill="#4B4948" p-id="48918"></path><path d="M677.790476 195.047619h99.149207-99.149207z" fill="#4A4847" p-id="48919"></path><path d="M679.415873 195.047619h99.149206-99.149206c-1.625397 0-1.625397 0 0 0z" fill="#494746" p-id="48920"></path><path d="M679.415873 196.673016h97.52381-97.52381z" fill="#484645" p-id="48921"></path><path d="M679.415873 196.673016H775.314286h-95.898413z" fill="#474544" p-id="48922"></path><path d="M681.04127 196.673016h94.273016-94.273016z" fill="#464443" p-id="48923"></path><path d="M681.04127 198.298413h91.022222-91.022222c0-1.625397 0-1.625397 0 0z" fill="#454342" p-id="48924"></path><path d="M682.666667 198.298413h89.396825H682.666667c-1.625397 0-1.625397 0 0 0z" fill="#444241" p-id="48925"></path><path d="M684.292063 198.298413H772.063492h-87.771429c-1.625397 0-1.625397 0 0 0z" fill="#434140" p-id="48926"></path><path d="M684.292063 198.298413H768.812698h-84.520635z" fill="#42403F" p-id="48927"></path><path d="M685.91746 199.92381h82.895238-82.895238c-1.625397-1.625397 0-1.625397 0 0z" fill="#413F3E" p-id="48928"></path><path d="M687.542857 199.92381H767.187302h-79.644445c-1.625397 0-1.625397 0 0 0z" fill="#403E3D" p-id="48929"></path><path d="M687.542857 199.92381h78.019048-78.019048z" fill="#3F3D3C" p-id="48930"></path><path d="M689.168254 199.92381H763.936508h-74.768254c-1.625397 0 0 0 0 0z" fill="#3E3C3B" p-id="48931"></path><path d="M690.793651 201.549206H763.936508h-73.142857c-1.625397-1.625397-1.625397 0 0 0z" fill="#3D3B3A" p-id="48932"></path><path d="M690.793651 201.549206h69.892063-69.892063z" fill="#3C3A39" p-id="48933"></path><path d="M692.419048 201.549206h66.641269-66.641269c-1.625397 0 0 0 0 0z" fill="#3B3938" p-id="48934"></path><path d="M694.044444 201.549206h63.390477-63.390477c-1.625397 0-1.625397 0 0 0z" fill="#3A3837" p-id="48935"></path><path d="M694.044444 201.549206H755.809524h-61.76508z" fill="#393736" p-id="48936"></path><path d="M697.295238 203.174603h56.888889-60.139683 3.250794z" fill="#383635" p-id="48937"></path><path d="M698.920635 203.174603h52.012698-55.263492 3.250794z" fill="#373534" p-id="48938"></path><path d="M702.171429 203.174603h47.136508H698.920635h3.250794z" fill="#363433" p-id="48939"></path><path d="M703.796825 204.8H747.68254h-45.511111c0-1.625397 1.625397-1.625397 1.625396 0z" fill="#353332" p-id="48940"></path><path d="M707.047619 204.8H744.431746h-40.634921 3.250794z" fill="#353231" p-id="48941"></path><path d="M711.92381 204.8h27.631746-34.133334 6.501588z" fill="#343130" p-id="48942"></path><path d="M718.425397 204.8H737.930159h-24.380953 4.876191z" fill="#33302F" p-id="48943"></path><path d="M682.666667 830.577778c1.625397 0 1.625397 0 0 0zM723.301587 859.834921c-8.126984-27.631746-8.126984-27.631746-22.755555-29.257143h-14.628572c3.250794 8.126984 6.501587 17.879365 9.752381 26.006349 11.377778 26.006349 35.75873 56.888889 45.511111 56.888889 9.752381 0 8.126984-1.625397-1.625396-16.253968-8.126984-11.377778-13.003175-24.380952-16.253969-37.384127z" fill="#FFFFFF" p-id="48944"></path><path d="M677.790476 742.806349c-61.765079 0-73.142857 0-69.892063-6.501587 1.625397-6.501587 0-6.501587-13.003175-6.501587s-16.253968 3.250794-17.879365 6.501587v-1.625397c-1.625397 4.87619-8.126984 6.501587-24.380952 6.501587s-21.130159 1.625397-21.130159 6.501588c0 4.87619 4.87619 6.501587 17.879365 6.501587 9.752381 0 17.879365 0 17.879365 1.625397-3.250794 9.752381-8.126984 19.504762-13.003175 29.257143-4.87619 9.752381-9.752381 19.504762-13.003174 30.882539 0 3.250794 16.253968 4.87619 42.260317 4.876191h42.260318v35.75873c0 30.88254-1.625397 35.75873-8.126984 40.634921-4.87619 3.250794-8.126984 6.501587-8.126984 11.377777 0 9.752381 27.631746 1.625397 39.009523-11.377777 8.126984-9.752381 9.752381-16.253968 9.752381-43.885715v-32.507936H698.920635c35.75873 0 43.885714-1.625397 43.885714-6.501587 0-4.87619-8.126984-6.501587-42.260317-8.126985l-43.885715-1.625396-3.250793-17.879366c-1.625397-17.879365-1.625397-19.504762-16.253968-19.504761s-14.628571 0-14.628572 19.504761v19.504762H601.396825c-8.126984 0-16.253968 0-24.380952-3.250793 1.625397-9.752381 4.87619-17.879365 9.752381-26.006349l11.377778-24.380953h76.393651c65.015873 0 76.393651 0 76.39365-6.501587 0-3.250794-11.377778-3.250794-73.142857-3.250794zM794.819048 177.168254l-1.625397-1.625397h-1.625397-1.625397-1.625397-1.625397-3.250793-1.625397-1.625397-1.625397-1.625396-1.625397-1.625397-1.625397-1.625397-1.625397-1.625396-1.625397-1.625397-1.625397-1.625397-1.625397-1.625396-1.625397-1.625397-1.625397-1.625397-1.625396-1.625397-1.625397C723.301587 149.536508 698.920635 146.285714 674.539683 146.285714c-27.631746 0-55.263492 0-82.895239 1.625397-22.755556 1.625397-45.511111 4.87619-68.266666 9.752381-48.761905 11.377778-95.898413 27.631746-141.409524 48.761905-29.257143 13.003175-55.263492 29.257143-78.019048 50.387301L284.444444 276.31746c-9.752381-6.501587-21.130159-11.377778-30.882539-17.879365-6.501587-3.250794-14.628571-6.501587-21.130159-8.126984-9.752381-3.250794-21.130159 1.625397-24.380952 11.377778-3.250794 4.87619-4.87619 11.377778-6.501588 16.253968-8.126984 30.88254-19.504762 60.139683-34.133333 89.396826-6.501587 11.377778-11.377778 24.380952-14.628571 37.384127-3.250794 9.752381 0 21.130159 6.501587 27.631746 6.501587 8.126984 17.879365 9.752381 27.631746 8.126984 19.504762-4.87619 37.384127-13.003175 52.012698-24.380953 19.504762-13.003175 30.88254-37.384127 29.257143-60.139682 0-14.628571-3.250794-27.631746-3.250793-40.634921 4.87619 1.625397 8.126984 4.87619 9.75238 11.377778 1.625397 8.126984 4.87619 14.628571 9.752381 21.130159 11.377778 17.879365 24.380952 32.507937 40.634921 45.511111 50.387302 42.260317 108.901587 69.892063 173.91746 84.520635 37.384127 9.752381 78.019048 9.752381 115.403175 0 58.514286-16.253968 108.901587-52.012698 144.660317-100.774604 4.87619-8.126984 9.752381-14.628571 16.253969-22.755555-1.625397 0-3.250794 1.625397-4.876191 1.625397-1.625397 0-1.625397 0-3.250793 1.625397-3.250794 1.625397-4.87619 1.625397-8.126985 3.250793-47.136508 14.628571-97.52381 17.879365-146.285714 4.876191-40.634921-9.752381-76.393651-30.88254-104.025397-61.76508-3.250794-3.250794-4.87619-4.87619-4.87619-8.126984s0-6.501587 3.250794-8.126984c1.625397-1.625397 6.501587-1.625397 8.126984 0 1.625397 1.625397 4.87619 3.250794 6.501587 6.501587 19.504762 21.130159 42.260317 37.384127 68.266667 47.136508 43.885714 14.628571 92.647619 17.879365 138.15873 8.126984 16.253968-3.250794 32.507937-8.126984 47.136508-16.253968 6.501587-3.250794 11.377778-8.126984 14.628571-14.628571 1.625397-1.625397 1.625397-3.250794 1.625397-4.876191 9.752381-19.504762 16.253968-42.260317 19.504762-63.390476 1.625397-14.628571 1.625397-27.631746 0-42.260317 0-11.377778-6.501587-22.755556-16.253968-30.88254z m-260.063492 63.390476c-4.87619 3.250794-9.752381 4.87619-14.628572 3.250794-6.501587 0-13.003175-1.625397-16.253968-8.126984-3.250794-4.87619-3.250794-13.003175 0-17.879365 3.250794-4.87619 9.752381-8.126984 16.253968-8.126985 4.87619 0 9.752381 1.625397 13.003175 4.876191 3.250794 3.250794 6.501587 8.126984 6.501587 13.003175 0 4.87619-1.625397 9.752381-4.87619 13.003174z m250.311111-58.514286s0 1.625397 0 0v1.625397h-1.625397-1.625397-1.625397-1.625397-1.625396-1.625397-1.625397-1.625397-1.625397-1.625397-1.625396-1.625397-1.625397-1.625397-1.625397-1.625397-1.625396-1.625397-1.625397-1.625397-1.625397H703.796825 698.920635h-1.625397-1.625397-3.250793-1.625397-1.625397-1.625397-3.250794-1.625396-1.625397H781.815873c3.250794-3.250794 3.250794-3.250794 3.250794-1.625397 0-1.625397 0-1.625397 0 0 0-1.625397 0-1.625397 0 0 0-1.625397 0 0 0 0z" fill="#FFFFFF" p-id="48945"></path><path d="M575.390476 830.577778c-8.126984 0-16.253968 1.625397-17.879365 3.250793v-1.625396c-1.625397 6.501587-4.87619 14.628571-4.87619 21.130158-3.250794 14.628571-8.126984 27.631746-14.628572 40.634921-8.126984 16.253968-9.752381 21.130159-4.87619 21.130159 13.003175 0 43.885714-43.885714 53.638095-74.768254 4.87619-8.126984 3.250794-9.752381-11.377778-9.752381zM551.009524 594.895238c1.625397-3.250794 4.87619-4.87619 9.752381-4.87619 3.250794 0 6.501587 1.625397 8.126984 6.501587 3.250794 4.87619 4.87619 9.752381 6.501587 14.628571 3.250794 13.003175 6.501587 27.631746 9.752381 40.634921 0 1.625397 1.625397 3.250794 3.250794 3.250794h14.628571-1.625397v-162.539683c-4.87619 1.625397-8.126984 3.250794-13.003174 4.876191-19.504762 4.87619-39.009524 4.87619-58.514286 0-3.250794-1.625397-6.501587 0-8.126984 3.250793-11.377778 21.130159-24.380952 40.634921-37.384127 61.76508-1.625397 3.250794-6.501587 6.501587-9.752381 8.126984-6.501587 1.625397-13.003175 1.625397-19.504762-1.625397-6.501587-3.250794-9.752381-9.752381-11.377778-16.253968-1.625397-3.250794-1.625397-6.501587-1.625396-8.126984-3.250794 8.126984-3.250794 16.253968 0 24.380952 4.87619 11.377778 16.253968 19.504762 27.631746 21.130159l-39.009524 65.015873c11.377778 1.625397 13.003175 1.625397 19.504762-4.876191 9.752381-11.377778 19.504762-21.130159 30.882539-32.507936 6.501587-4.87619 11.377778-11.377778 17.879365-16.253969 3.250794-1.625397 6.501587-3.250794 11.377778-4.87619-1.625397 21.130159-1.625397 40.634921-1.625397 60.139682h9.752381c4.87619 1.625397 6.501587-1.625397 8.126984-6.501587 3.250794-11.377778 6.501587-22.755556 11.377778-34.133333 3.250794-6.501587 8.126984-14.628571 13.003175-21.130159zM482.742857 768.812698H281.193651l-1.625397 24.380953c-1.625397 8.126984-1.625397 17.879365 0 26.006349 14.628571 1.625397 30.88254 1.625397 45.511111 1.625397h42.260318V845.206349c0 34.133333-4.87619 50.387302-13.003175 53.638095-4.87619 1.625397-8.126984 4.87619-8.126984 9.752381 0 9.752381 26.006349 4.87619 39.009524-8.126984 8.126984-8.126984 9.752381-13.003175 9.752381-43.885714v-34.133333h89.396825v-53.638096z m-26.006349 24.380953l-1.625397 13.003174h-146.285714l-1.625397-13.003174-1.625397-11.377778h151.161905v11.377778z" fill="#FFFFFF" p-id="48946"></path><path d="M318.577778 830.577778c-16.253968 0-14.628571 0-22.755556 27.631746-3.250794 14.628571-9.752381 29.257143-16.253968 42.260317l-8.126984 14.628572h9.752381c9.752381 0 32.507937-26.006349 45.511111-55.263492 9.752381-26.006349 9.752381-29.257143-8.126984-29.257143zM466.488889 851.707937c-4.87619-21.130159-6.501587-22.755556-21.130159-22.755556-9.752381 0-14.628571 1.625397-14.628571 6.501587h1.625397c6.501587 22.755556 17.879365 45.511111 32.507936 63.390476 4.87619 6.501587 11.377778 11.377778 19.504762 14.628572 8.126984 0 8.126984-1.625397-1.625397-19.504762-8.126984-13.003175-13.003175-27.631746-16.253968-42.260317zM443.733333 741.180952c-40.634921 0-48.761905-1.625397-48.761904-6.501587 0-4.87619-4.87619-6.501587-13.003175-6.501587-6.501587 0-11.377778 1.625397-16.253968 6.501587-1.625397 4.87619-11.377778 6.501587-48.761905 6.501587s-47.136508 1.625397-47.136508 6.501588c0 4.87619 14.628571 6.501587 110.526984 6.501587 95.898413 0 110.526984 0 110.526984-6.501587 1.625397-6.501587-6.501587-6.501587-47.136508-6.501588z" fill="#FFFFFF" p-id="48947"></path></svg>