<?xml version="1.0" standalone="no"?><!DOCTYPE svg PUBLIC "-//W3C//DTD SVG 1.1//EN" "http://www.w3.org/Graphics/SVG/1.1/DTD/svg11.dtd"><svg t="1535504439211" class="icon" style="" viewBox="0 0 1024 1024" version="1.1" xmlns="http://www.w3.org/2000/svg" p-id="11916" xmlns:xlink="http://www.w3.org/1999/xlink" width="64" height="64"><defs><style type="text/css"></style></defs><path d="M1.707 805.547a472.747 97.28 0 1 0 945.493 0 472.747 97.28 0 1 0-945.493 0z" fill="#DDDDDD" p-id="11917"></path><path d="M761.173 191.147h-281.6V168.96c0-27.307-22.186-49.493-49.493-49.493h-204.8c-27.307 0-49.493 22.186-49.493 49.493v23.893c-20.48 5.12-37.547 23.894-37.547 47.787v226.987c0 27.306 22.187 49.493 49.493 49.493h573.44c27.307 0 49.494-22.187 49.494-49.493V238.933c0-25.6-22.187-47.786-49.494-47.786z" fill="#FFFFFF" p-id="11918"></path><path d="M761.173 523.947h-573.44c-32.426 0-58.026-25.6-58.026-58.027V238.933c0-23.893 15.36-44.373 37.546-52.906V168.96c0-32.427 25.6-58.027 58.027-58.027h204.8c32.427 0 58.027 25.6 58.027 58.027v13.653h273.066c32.427 0 58.027 25.6 58.027 58.027v226.987c0 30.72-25.6 56.32-58.027 56.32zM225.28 129.707c-22.187 0-40.96 18.773-40.96 40.96v30.72l-6.827 1.706c-17.066 1.707-29.013 18.774-29.013 35.84V465.92c0 22.187 18.773 40.96 40.96 40.96h573.44c22.187 0 40.96-18.773 40.96-40.96V238.933c0-22.186-18.773-40.96-40.96-40.96H472.747V168.96c0-22.187-18.774-40.96-40.96-40.96H225.28z" fill="#5D88E4" p-id="11919"></path><path d="M761.173 191.147h-281.6V168.96c0-27.307-22.186-49.493-49.493-49.493h-204.8c-27.307 0-49.493 22.186-49.493 49.493v23.893c-20.48 5.12-37.547 23.894-37.547 47.787v226.987c0 27.306 22.187 49.493 49.493 49.493h573.44c27.307 0 49.494-22.187 49.494-49.493V238.933c0-25.6-22.187-47.786-49.494-47.786z" fill="#F5F5F5" p-id="11920"></path><path d="M761.173 523.947h-573.44c-32.426 0-58.026-25.6-58.026-58.027V238.933c0-23.893 15.36-44.373 37.546-52.906V168.96c0-32.427 25.6-58.027 58.027-58.027h204.8c32.427 0 58.027 25.6 58.027 58.027v13.653h273.066c32.427 0 58.027 25.6 58.027 58.027v226.987c0 30.72-25.6 56.32-58.027 56.32zM225.28 129.707c-22.187 0-40.96 18.773-40.96 40.96v30.72l-6.827 1.706c-17.066 1.707-29.013 18.774-29.013 35.84V465.92c0 22.187 18.773 40.96 40.96 40.96h573.44c22.187 0 40.96-18.773 40.96-40.96V238.933c0-22.186-18.773-40.96-40.96-40.96H472.747V168.96c0-22.187-18.774-40.96-40.96-40.96H225.28z" fill="#999999" p-id="11921"></path><path d="M776.533 800.427H174.08c-23.893 0-44.373-17.067-47.787-37.547L81.92 322.56c-3.413-27.307 17.067-47.787 44.373-47.787h696.32c27.307 0 47.787 22.187 44.374 47.787l-46.08 440.32c0 20.48-20.48 37.547-44.374 37.547z" fill="#FFFFFF" p-id="11922"></path><path d="M776.533 808.96H174.08c-27.307 0-52.907-20.48-56.32-44.373l-44.373-440.32c-1.707-15.36 3.413-29.014 13.653-40.96C97.28 271.36 110.933 266.24 128 266.24h696.32c15.36 0 30.72 6.827 40.96 17.067 10.24 10.24 13.653 25.6 13.653 40.96l-46.08 440.32c-3.413 23.893-29.013 44.373-56.32 44.373z m-650.24-525.653c-11.946 0-20.48 3.413-27.306 11.946-6.827 6.827-10.24 17.067-8.534 27.307l46.08 438.613c1.707 15.36 18.774 29.014 39.254 29.014h600.746c18.774 0 37.547-13.654 39.254-29.014l46.08-440.32c1.706-10.24-1.707-20.48-8.534-27.306-6.826-8.534-17.066-11.947-27.306-11.947H126.293z" fill="#5D88E4" p-id="11923"></path><path d="M776.533 800.427H174.08c-23.893 0-44.373-17.067-47.787-37.547L81.92 322.56c-3.413-27.307 17.067-47.787 44.373-47.787h696.32c27.307 0 47.787 22.187 44.374 47.787l-46.08 440.32c0 20.48-20.48 37.547-44.374 37.547z" fill="#F5F5F5" p-id="11924"></path><path d="M776.533 808.96H174.08c-27.307 0-52.907-20.48-56.32-44.373l-44.373-440.32c-1.707-15.36 3.413-29.014 13.653-40.96C97.28 271.36 110.933 266.24 128 266.24h696.32c15.36 0 30.72 6.827 40.96 17.067 10.24 10.24 13.653 25.6 13.653 40.96l-46.08 440.32c-3.413 23.893-29.013 44.373-56.32 44.373z m-650.24-525.653c-11.946 0-20.48 3.413-27.306 11.946-6.827 6.827-10.24 17.067-8.534 27.307l46.08 438.613c1.707 15.36 18.774 29.014 39.254 29.014h600.746c18.774 0 37.547-13.654 39.254-29.014l46.08-440.32c1.706-10.24-1.707-20.48-8.534-27.306-6.826-8.534-17.066-11.947-27.306-11.947H126.293zM902.827 911.36c-5.12 0-10.24-5.12-10.24-10.24v-54.613c0-5.12 5.12-10.24 10.24-10.24s10.24 5.12 10.24 10.24v54.613c-1.707 6.827-5.12 10.24-10.24 10.24z" fill="#999999" p-id="11925"></path><path d="M938.667 875.52c0 5.12-5.12 10.24-10.24 10.24h-54.614c-5.12 0-10.24-5.12-10.24-10.24s5.12-10.24 10.24-10.24h54.614c5.12 0 10.24 5.12 10.24 10.24zM81.92 194.56c-5.12 0-10.24-5.12-10.24-10.24v-54.613c0-5.12 5.12-10.24 10.24-10.24s10.24 5.12 10.24 10.24v54.613c-1.707 5.12-5.12 10.24-10.24 10.24z" fill="#999999" p-id="11926"></path><path d="M117.76 157.013c0 5.12-5.12 10.24-10.24 10.24H54.613c-5.12 0-10.24-5.12-10.24-10.24s5.12-10.24 10.24-10.24h54.614c5.12 0 8.533 5.12 8.533 10.24zM960.853 305.493c-5.12 0-8.533-3.413-8.533-8.533v-34.133c0-5.12 3.413-8.534 8.533-8.534s8.534 3.414 8.534 8.534v34.133c-1.707 5.12-5.12 8.533-8.534 8.533z m0 73.387c-5.12 0-8.533-3.413-8.533-8.533v-34.134c0-5.12 3.413-8.533 8.533-8.533s8.534 3.413 8.534 8.533v34.134c-1.707 5.12-5.12 8.533-8.534 8.533z m-11.946-61.44c0 5.12-3.414 8.533-8.534 8.533H906.24c-5.12 0-8.533-3.413-8.533-8.533s3.413-8.533 8.533-8.533h34.133c5.12 0 8.534 5.12 8.534 8.533z m73.386 0c0 5.12-3.413 8.533-8.533 8.533h-34.133c-5.12 0-8.534-3.413-8.534-8.533s3.414-8.533 8.534-8.533h34.133c3.413 0 8.533 5.12 8.533 8.533z" fill="#999999" p-id="11927"></path><path d="M80.213 546.133l23.894-42.666L128 546.133l44.373 23.894L128 593.92l-23.893 44.373-23.894-44.373-42.666-23.893z" fill="#FFFFFF" p-id="11928"></path><path d="M104.107 655.36l-30.72-54.613-54.614-30.72 54.614-30.72 30.72-54.614 30.72 54.614 54.613 30.72-54.613 30.72-30.72 54.613z m-49.494-85.333l32.427 17.066 17.067 32.427 17.066-32.427 32.427-17.066-32.427-17.067-17.066-32.427L87.04 552.96l-32.427 17.067z" fill="#999999" p-id="11929"></path><path d="M80.213 546.133l23.894-42.666L128 546.133l44.373 23.894L128 593.92l-23.893 44.373-23.894-44.373-42.666-23.893z" fill="#F5F5F5" p-id="11930"></path><path d="M104.107 655.36l-30.72-54.613-54.614-30.72 54.614-30.72 30.72-54.614 30.72 54.614 54.613 30.72-54.613 30.72-30.72 54.613z m-49.494-85.333l32.427 17.066 17.067 32.427 17.066-32.427 32.427-17.066-32.427-17.067-17.066-32.427L87.04 552.96l-32.427 17.067zM870.4 189.44l3.413-6.827 5.12 6.827 6.827 5.12-6.827 3.413-5.12 8.534-3.413-8.534-8.533-3.413z" fill="#999999" p-id="11931"></path><path d="M873.813 223.573l-10.24-18.773-18.773-10.24 18.773-11.947 10.24-18.773 10.24 18.773 20.48 11.947-20.48 10.24z" fill="#999999" p-id="11932"></path><path d="M296.96 421.547a20.48 20.48 0 1 0 40.96 0 20.48 20.48 0 1 0-40.96 0z" fill="#FFFFFF" p-id="11933"></path><path d="M317.44 450.56c-15.36 0-29.013-13.653-29.013-29.013s13.653-29.014 29.013-29.014 29.013 13.654 29.013 29.014S332.8 450.56 317.44 450.56z m0-40.96c-6.827 0-11.947 5.12-11.947 11.947s5.12 11.946 11.947 11.946 11.947-5.12 11.947-11.946-5.12-11.947-11.947-11.947z" fill="#999999" p-id="11934"></path><path d="M612.693 421.547a20.48 20.48 0 1 0 40.96 0 20.48 20.48 0 1 0-40.96 0z" fill="#FFFFFF" p-id="11935"></path><path d="M633.173 450.56c-15.36 0-29.013-13.653-29.013-29.013s13.653-29.014 29.013-29.014c15.36 0 29.014 13.654 29.014 29.014s-11.947 29.013-29.014 29.013z m0-40.96c-6.826 0-11.946 5.12-11.946 11.947s5.12 11.946 11.946 11.946 11.947-5.12 11.947-11.946S640 409.6 633.173 409.6z" fill="#999999" p-id="11936"></path><path d="M505.173 860.16c-22.186-22.187-18.773-58.027 5.12-81.92l167.254-160.427c20.48-18.773 51.2-18.773 69.973 0 18.773 18.774 18.773 51.2 0 69.974L587.093 855.04c-23.893 23.893-61.44 25.6-81.92 5.12z" fill="#FFFFFF" p-id="11937"></path><path d="M541.013 882.347c-17.066 0-30.72-6.827-42.666-17.067-11.947-11.947-17.067-27.307-17.067-42.667 0-18.773 8.533-37.546 22.187-51.2L670.72 610.987c22.187-22.187 59.733-22.187 81.92 0 22.187 22.186 22.187 59.733 0 81.92L592.213 860.16c-13.653 13.653-32.426 22.187-51.2 22.187z m170.667-271.36c-10.24 0-22.187 3.413-29.013 11.946L515.413 785.067c-10.24 10.24-17.066 23.893-17.066 39.253 0 11.947 3.413 22.187 11.946 30.72 17.067 17.067 49.494 15.36 69.974-5.12l160.426-167.253c15.36-17.067 15.36-42.667 0-58.027-6.826-8.533-17.066-13.653-29.013-13.653z" fill="#999999" p-id="11938"></path><path d="M505.173 860.16c-22.186-22.187-18.773-58.027 5.12-81.92l167.254-160.427c20.48-18.773 51.2-18.773 69.973 0 18.773 18.774 18.773 51.2 0 69.974L587.093 855.04c-23.893 23.893-61.44 25.6-81.92 5.12z" fill="#BBBBBB" p-id="11939"></path><path d="M617.813 549.547a197.973 197.973 0 1 0 395.947 0 197.973 197.973 0 1 0-395.947 0z" fill="#FFFFFF" p-id="11940"></path><path d="M815.787 754.347c-54.614 0-105.814-22.187-145.067-59.734-80.213-80.213-80.213-209.92 0-290.133 39.253-39.253 90.453-59.733 145.067-59.733S921.6 366.933 960.853 404.48c80.214 80.213 80.214 209.92 0 290.133-39.253 39.254-90.453 59.734-145.066 59.734z m0-394.24c-51.2 0-97.28 18.773-133.12 54.613-73.387 73.387-73.387 192.853 0 266.24 35.84 35.84 83.626 54.613 133.12 54.613s97.28-20.48 133.12-54.613c73.386-73.387 73.386-192.853 0-266.24-35.84-34.133-83.627-54.613-133.12-54.613z" fill="#999999" p-id="11941"></path><path d="M626.347 549.547a189.44 189.44 0 1 0 378.88 0 189.44 189.44 0 1 0-378.88 0z" fill="#F5F5F5" p-id="11942"></path><path d="M660.48 549.547a155.307 155.307 0 1 0 310.613 0 155.307 155.307 0 1 0-310.613 0z" fill="#FFFFFF" p-id="11943"></path><path d="M815.787 713.387c-44.374 0-85.334-17.067-116.054-47.787s-47.786-71.68-47.786-116.053 17.066-85.334 47.786-116.054c30.72-30.72 71.68-47.786 116.054-47.786 44.373 0 85.333 17.066 116.053 47.786 30.72 30.72 47.787 71.68 47.787 116.054S962.56 634.88 931.84 665.6s-73.387 47.787-116.053 47.787z m0-312.32c-39.254 0-76.8 15.36-104.107 42.666-27.307 27.307-42.667 64.854-42.667 104.107s15.36 76.8 42.667 104.107c27.307 27.306 64.853 42.666 104.107 42.666s76.8-15.36 104.106-42.666C947.2 624.64 962.56 587.093 962.56 547.84s-15.36-76.8-42.667-104.107c-29.013-27.306-64.853-42.666-104.106-42.666z" fill="#999999" p-id="11944"></path><path d="M667.307 549.547a148.48 148.48 0 1 0 296.96 0 148.48 148.48 0 1 0-296.96 0z" fill="#F5F5F5" p-id="11945"></path><path d="M558.08 786.773c-5.12-5.12-5.12-11.946 0-17.066l73.387-73.387c5.12-5.12 11.946-5.12 17.066 0 5.12 5.12 5.12 11.947 0 17.067l-73.386 73.386c-3.414 5.12-11.947 5.12-17.067 0zM527.36 803.84a13.653 13.653 0 1 0 27.307 0 13.653 13.653 0 1 0-27.307 0zM742.4 464.213c-1.707 0-1.707 0 0 0-5.12-5.12-3.413-11.946 1.707-15.36 49.493-35.84 116.053-30.72 160.426 11.947 3.414 3.413 3.414 10.24 0 15.36-3.413 3.413-10.24 3.413-15.36 0-35.84-35.84-92.16-39.253-133.12-10.24-5.12 3.413-10.24 3.413-13.653-1.707zM696.32 539.307c-1.707-1.707-3.413-5.12-3.413-8.534 1.706-11.946 5.12-23.893 11.946-35.84 1.707-5.12 8.534-6.826 13.654-5.12 5.12 1.707 6.826 8.534 5.12 13.654-5.12 8.533-8.534 18.773-10.24 29.013-1.707 5.12-6.827 10.24-11.947 8.533-1.707 0-3.413 0-5.12-1.706z" fill="#FFFFFF" p-id="11946"></path><path d="M612.693 655.36c-3.413 0-6.826-1.707-8.533-5.12-22.187-51.2-73.387-83.627-129.707-83.627S368.64 599.04 344.747 650.24c-1.707 5.12-6.827 6.827-11.947 5.12-5.12-1.707-6.827-6.827-5.12-11.947 25.6-56.32 81.92-93.866 145.067-93.866s119.466 37.546 145.066 93.866c1.707 5.12 0 8.534-5.12 11.947 1.707 0 0 0 0 0z" fill="#999999" p-id="11947"></path></svg>