<?xml version="1.0" standalone="no"?><!DOCTYPE svg PUBLIC "-//W3C//DTD SVG 1.1//EN" "http://www.w3.org/Graphics/SVG/1.1/DTD/svg11.dtd"><svg t="1576305903226" class="icon" viewBox="0 0 1024 1024" version="1.1" xmlns="http://www.w3.org/2000/svg" p-id="28685" xmlns:xlink="http://www.w3.org/1999/xlink" width="200" height="200"><defs><style type="text/css"></style></defs><path d="M101.075058 0m113.777778 0l512 0q113.777778 0 113.777777 113.777778l0 796.444444q0 113.777778-113.777777 113.777778l-512 0q-113.777778 0-113.777778-113.777778l0-796.444444q0-113.777778 113.777778-113.777778Z" fill="#008BE8" p-id="28686"></path><path d="M214.852836 113.777778m56.888888 0l398.222223 0q56.888889 0 56.888889 56.888889l0 568.888889q0 56.888889-56.888889 56.888888l-398.222223 0q-56.888889 0-56.888888-56.888888l0-568.888889q0-56.888889 56.888888-56.888889Z" fill="#FFFFFF" p-id="28687"></path><path d="M385.519502 853.333333m28.444445 0l113.777777 0q28.444444 0 28.444445 28.444445l0 0q0 28.444444-28.444445 28.444444l-113.777777 0q-28.444444 0-28.444445-28.444444l0 0q0-28.444444 28.444445-28.444445Z" fill="#FFFFFF" p-id="28688"></path></svg>