<?xml version="1.0" standalone="no"?><!DOCTYPE svg PUBLIC "-//W3C//DTD SVG 1.1//EN" "http://www.w3.org/Graphics/SVG/1.1/DTD/svg11.dtd"><svg t="1577070579139" class="icon" viewBox="0 0 1024 1024" version="1.1" xmlns="http://www.w3.org/2000/svg" p-id="10358" xmlns:xlink="http://www.w3.org/1999/xlink" width="200" height="200"><defs><style type="text/css"></style></defs><path d="M510.361759 510.260611m-502.89846 0a502.89846 502.89846 0 1 0 1005.79692 0 502.89846 502.89846 0 1 0-1005.79692 0Z" fill="#FFFFFF" p-id="10359"></path><path d="M227.72815 462.533068s85.441405 42.587042 92.471211 76.919662c7.008132 34.310945-117.035796 137.265454-117.035796 137.265454l88.555328 65.06725s91.665638-162.093747 84.639444-215.348322c-7.000907-53.254575-108.824723-120.706034-108.824723-120.706034L227.72815 462.533068z m174.383264-106.491088c-22.245399 37.869197-51.495317 63.904045-51.495317 63.904045l39.772953 35.495825 52.662134-62.737227 35.134581 3.55464-64.366436 80.474302s2.333636 27.198053 22.227336 28.382933 50.314049-46.141682 50.31405-46.141683l36.297786 7.112892 1.163205 47.330175h-118.195389v31.941185l117.028572 3.55464v100.58475s-33.779916 5.075477-48.68484-15.963368c-14.901311-21.035232-8.994973-54.309407-8.994973-54.309407l-75.756456-1.903755s-4.721458 58.395075 15.580449 87.482433c20.27662 29.11987 62.162849 39.426158 104.771566 35.871519s148.825259-48.80405 148.825259-48.80405l7.004519 31.941185 56.1951-26.034847-33.942476-89.917218-45.625104 9.460978 4.660046 39.032402-56.18065 24.871642v-89.935279l118.217064-4.73952v-33.126065h-120.539862v-47.330175h115.840079v-37.865584H514.447427l28.086713-55.61711s50.332112-23.675925 83.100545-28.39377c32.764821-4.73952 47.980414-7.112892 78.39715 11.830737 30.43841 18.925568 35.116519 46.145295 35.116518 46.145295v263.885051s-9.356217 26.013173-42.121037 36.65903c-32.764821 10.667532-85.445018-1.18488-85.445018-1.184879l-4.678109 36.702379s87.796716 17.737075 145.136959-5.928012c57.336631-23.665087 65.522417-91.102097 65.522417-91.102098V419.946025c0-46.163357-45.784051-105.125585-120.532637-118.343499-73.722654-13.01923-181.398621 41.420225-197.781031 43.76831-16.378798 2.380597-21.060519-2.348085-21.060519-2.348085l18.716046-36.698767-64.366437-26.013173c-0.007225 0-8.178562 37.861972-30.427573 75.731169m-139.219784-27.284751c0 29.210181 23.408604 52.900556 52.297279 52.900556s52.297278-23.690374 52.297278-52.900556c0-29.177669-23.408604-52.860819-52.297278-52.860819S262.89163 299.57956 262.89163 328.757229" fill="#FC8848" p-id="10360"></path></svg>