<?xml version="1.0" standalone="no"?><!DOCTYPE svg PUBLIC "-//W3C//DTD SVG 1.1//EN" "http://www.w3.org/Graphics/SVG/1.1/DTD/svg11.dtd"><svg t="1535075332163" class="icon" style="" viewBox="0 0 1024 1024" version="1.1" xmlns="http://www.w3.org/2000/svg" p-id="5113" xmlns:xlink="http://www.w3.org/1999/xlink" width="64" height="64"><defs><style type="text/css"></style></defs><path d="M374.272 336.896c0-50.688 13.312-168.96 137.728-168.96 119.808 0 137.728 105.984 137.728 168.96v37.376H752.64v-37.376c0-165.376-94.72-272.384-240.64-272.384S271.36 171.52 271.36 336.896v37.376h103.424l-0.512-37.376z m378.368 71.68H271.36c-56.832 0-103.424 46.08-103.424 103.424v344.064c0 56.832 46.08 103.424 103.424 103.424h481.28c56.832 0 103.424-46.08 103.424-103.424V512c0-56.832-46.08-103.424-103.424-103.424z m-206.336 300.544v78.336a34.304 34.304 0 0 1-68.608 0v-78.336c-20.48-11.776-34.304-33.792-34.304-59.392 0-37.888 30.72-68.608 68.608-68.608s68.608 30.72 68.608 68.608c0 25.088-13.824 47.104-34.304 59.392z" fill="#ffa93d" p-id="5114"></path></svg>