<?xml version="1.0" standalone="no"?><!DOCTYPE svg PUBLIC "-//W3C//DTD SVG 1.1//EN" "http://www.w3.org/Graphics/SVG/1.1/DTD/svg11.dtd"><svg t="1535074611114" class="icon" style="" viewBox="0 0 1024 1024" version="1.1" xmlns="http://www.w3.org/2000/svg" p-id="2364" xmlns:xlink="http://www.w3.org/1999/xlink" width="64" height="64"><defs><style type="text/css"></style></defs><path d="M625.749333 419.797333H398.976a822.314667 822.314667 0 0 0-2.048 187.477334h230.869333a822.314667 822.314667 0 0 0-2.048-187.477334zM616.96 679.253333H407.765333a772.821333 772.821333 0 0 0 104.576 263.168 770.005333 770.005333 0 0 0 104.618667-263.168zM704.170667 522.453333c0 28.458667-1.322667 56.746667-4.010667 84.821334h245.376a446.848 446.848 0 0 0 0.341333-187.477334h-247.594666c3.925333 33.92 5.888 68.181333 5.888 102.656zM663.466667 256.469333c9.472 29.994667 17.322667 60.458667 23.509333 91.306667h236.970667a442.752 442.752 0 0 0-98.176-148.608 441.6 441.6 0 0 0-244.181334-124.501333 850.261333 850.261333 0 0 1 81.877334 181.802666zM358.784 780.544a865.706667 865.706667 0 0 1-24.405333-101.248H101.034667l2.517333 6.144c22.357333 52.821333 54.314667 100.224 95.018667 140.970667a440.917333 440.917333 0 0 0 232.106666 122.410666 852.864 852.864 0 0 1-71.893333-168.277333zM690.346667 679.253333c-6.4 35.754667-14.976 70.997333-25.770667 105.6a851.029333 851.029333 0 0 1-70.485333 163.84 442.752 442.752 0 0 0 231.68-122.368 441.6 441.6 0 0 0 95.018666-140.970666l2.517334-6.144h-232.96zM320.512 522.453333c0-34.474667 1.962667-68.778667 5.888-102.656H78.421333a443.946667 443.946667 0 0 0-9.728 92.970667c0 32.085333 3.370667 63.658667 10.069334 94.506667h245.76a903.936 903.936 0 0 1-4.010667-84.821334zM337.749333 347.776a859.093333 859.093333 0 0 1 105.429334-273.194667 442.282667 442.282667 0 0 0-244.608 124.586667 441.6 441.6 0 0 0-95.018667 140.970667l-3.157333 7.637333h237.354666zM613.248 347.776a768.64 768.64 0 0 0-100.906667-245.290667 769.066667 769.066667 0 0 0-100.906666 245.290667h201.813333z" fill="#46a9fd" p-id="2365"></path></svg>