<?xml version="1.0" standalone="no"?><!DOCTYPE svg PUBLIC "-//W3C//DTD SVG 1.1//EN" "http://www.w3.org/Graphics/SVG/1.1/DTD/svg11.dtd"><svg t="1576308092301" class="icon" viewBox="0 0 1024 1024" version="1.1" xmlns="http://www.w3.org/2000/svg" p-id="68570" xmlns:xlink="http://www.w3.org/1999/xlink" width="200" height="200"><defs><style type="text/css"></style></defs><path d="M512 512m-512 0a512 512 0 1 0 1024 0 512 512 0 1 0-1024 0Z" fill="#E20781" p-id="68571"></path><path d="M686.08 793.7024V657.408c38.8608 1.8432 75.4176 2.7136 111.8208 5.6832 19.456 1.5872 33.1264-1.3312 34.048-24.0128 0.8192-20.4288-7.5264-29.0816-29.4912-28.16-38.4 1.7408-76.9024 0.512-116.3264 0.512v-115.712c38.912 0 75.776-2.2528 112.2304 0.9216 19.968 1.6896 31.7952 2.5088 32.8704-21.5552 1.024-24.7296-12.1856-28.0064-32.7168-27.3408-37.376 1.28-74.8032 0.3584-114.176 0.3584V311.5008c39.168 0 78.6432 0.512 118.1184-0.1536 31.6928-0.512 42.3424-13.0048 40.96-48.5376H489.3696l44.1856-104.2944c-53.76-10.8544-62.8224-5.6832-84.5312 35.328-25.3952 48.0768-52.2752 95.3344-78.848 142.7456-2.7136 4.864-7.4752 8.5504-16.64 18.688V260.608H153.6V811.008c47.2064 0 92.5696 0.512 137.8816-0.1536 42.8544-0.6144 64-22.3744 64.1536-65.1264 0.2048-71.8848 4.1984-144.128-1.2288-215.6032-4.2496-55.9616 26.8288-89.2928 62.8736-132.7616v309.5552c0 33.9968-0.1024 67.9936 0.1536 102.0416 0.2048 21.6576 9.0112 34.816 33.0752 34.6112 118.4256-0.768 236.8-0.7168 355.1744-1.8944 28.2624-0.3072 39.2192-15.4624 37.3248-47.9232H686.08z m-401.0496-48.7424H219.2896V317.8496h65.7408v427.1104z m328.4992 65.6896H482.2016c0-39.5776-0.4096-79.2576 0.6656-118.9376 0.1536-4.2496 9.216-11.6736 14.2848-11.776 37.7856-1.024 75.6224-0.5632 116.3776-0.5632v131.2768z m-0.1536-197.12H482.304c0-29.44-0.5632-58.2656 0.5632-87.04 0.2048-3.8912 8.7552-10.5984 13.6192-10.752 33.792-0.9728 67.584-1.024 101.376 0 5.3248 0.2048 14.592 7.7312 14.848 12.1856 1.3312 28.0064 0.6656 56.1152 0.6656 85.6064z m0-164.2496H482.2016V318.0032c39.7824 0 79.1552-0.5632 118.528 0.7168 4.4032 0.1536 11.9808 10.7008 12.1856 16.5888 1.1264 36.7616 0.512 73.5232 0.512 113.9712z m53.4016-164.2496c9.3184-5.888 14.7968-8.9088 19.8656-12.4928 31.744-22.6816 32.3584-26.0096 9.8304-58.0608-14.592-20.7872-29.5424-41.2672-43.6224-60.8768-11.6224 8.8576-23.9104 14.6944-30.9248 24.576-5.8368 8.2432-10.9568 24.576-6.9632 31.5392 14.6432 25.6512 33.1776 48.9472 51.8144 75.264z" fill="#FFFFFF" p-id="68572"></path></svg>