<?xml version="1.0" encoding="UTF-8" standalone="no"?>
<!DOCTYPE svg PUBLIC "-//W3C//DTD SVG 1.1//EN" "http://www.w3.org/Graphics/SVG/1.1/DTD/svg11.dtd">
<svg t="1576305655762" class="icon" viewBox="0 0 1024 1024" version="1.1" xmlns="http://www.w3.org/2000/svg" p-id="24835" xmlns:xlink="http://www.w3.org/1999/xlink" width="200" height="200"><defs><style type="text/css"/></defs><path d="M821.76 158.208L527.36 65.536c-10.24-3.072-20.992-3.072-31.232 0L202.24 158.208c-21.504 6.656-36.352 26.624-36.352 49.664V399.36c0 235.52 129.536 450.048 337.92 559.616 2.56 1.536 5.12 2.048 8.192 2.048 2.56 0 5.632-0.512 8.192-2.048 208.384-109.568 337.92-324.096 337.92-559.616V207.872c0-22.528-14.848-42.496-36.352-49.664z m-481.28 460.288c-3.584-10.752-0.512-18.944 10.24-24.576 13.312-5.632 27.136-11.776 41.472-18.944 9.728-4.608 14.848-7.168 15.872-7.168 12.288-3.584 20.992-0.512 26.112 10.24 2.048 12.288-3.072 20.992-14.336 26.112-3.584 2.048-10.24 4.608-18.944 8.704-16.384 6.656-28.16 11.264-35.84 14.336-12.8 3.072-20.992 0-24.576-8.704z m342.528-166.912c-7.68 13.312-18.432 14.848-31.744 4.096 0 15.36-5.12 23.04-15.872 23.04H510.464c-10.752-1.024-15.872-7.68-15.872-19.968-16.384 12.288-27.648 9.728-34.304-8.704v50.176c11.264 0 18.432 6.656 19.968 19.968v11.264c0 38.4-2.56 75.264-7.168 110.592l3.072-3.072c2.048-3.072 4.608-4.096 8.704-4.096h104.96c17.408-46.08 29.696-88.576 37.376-128 3.072-11.264 10.752-16.384 23.04-14.336 11.264 3.584 16.384 11.264 14.336 23.04-6.656 39.424-17.92 78.848-33.28 119.296h33.28c9.728 1.024 14.848 7.168 15.872 18.944-1.024 11.264-6.144 17.92-15.872 18.944H484.352c-6.656-1.024-11.264-6.144-14.336-15.872-10.752 16.384-28.16 24.064-53.248 23.04-7.68 1.024-16.896 0-27.136-3.072-9.728-3.584-13.312-11.264-11.264-23.04 3.584-10.752 10.752-14.848 21.504-12.8h21.504c14.336 7.68 20.48-19.456 18.944-80.384V547.84c1.024-4.608-1.536-7.168-7.168-7.168H372.224c-13.312 1.024-19.456-8.192-18.944-27.136 0-9.728 0.512-23.552 1.536-41.472V430.08c1.024-9.728 7.168-14.848 18.944-15.872 13.312 0 19.968 4.608 19.968 14.336v28.672c-1.024 19.456-1.536 32.256-1.536 38.912 0 3.584 2.56 5.632 7.168 5.632h20.48V404.48c1.024-4.608-1.536-7.168-7.168-7.168H357.888c-9.728-1.024-14.336-7.68-14.336-19.968 0-11.264 4.608-17.92 14.336-18.944h81.92c14.336 0 20.992 6.656 19.968 19.968v63.488c2.048-4.608 6.144-9.728 12.8-14.336 3.072-2.048 5.12-3.584 7.168-5.632 22.016-19.456 46.592-43.52 73.216-73.216 7.68-6.656 17.92-6.656 30.208 0 19.968 18.432 49.664 44.032 89.088 77.824 12.288 8.192 15.36 16.384 10.752 25.088zM596.48 578.56c1.024 13.312-3.584 21.504-14.336 24.576-11.264 1.024-18.944-4.608-21.504-17.408-2.048-13.312-4.608-33.792-8.704-60.416-1.024-7.68-2.048-13.312-3.072-17.408-1.024-11.264 4.096-18.432 15.872-19.968 11.264 0 18.944 5.12 21.504 15.872 6.144 26.624 9.216 51.712 10.24 74.752z m-61.952 41.472c-11.264 3.584-19.456 0-23.04-11.264-1.024-4.608-3.584-13.824-7.168-27.136-6.656-24.064-11.264-40.448-14.336-50.176-3.072-11.264 1.024-19.456 11.264-24.576 11.264-3.072 19.456 1.024 23.04 11.264 6.656 19.456 13.824 45.056 21.504 77.824 2.56 12.288-1.536 20.48-11.264 24.064z" fill="#3889FF" p-id="24836"/><path d="M562.176 392.704c-23.04 23.04-39.936 39.424-50.176 49.152h123.904c-8.704-6.656-28.16-23.552-58.88-50.176-5.632-6.144-10.24-5.632-14.848 1.024z" fill="#3889FF" p-id="24837"/></svg>